,
Brought to you by  http://www.scenetime.com/signup.php
 
 Hottest scene tracker on the net !!!   
 
No fake torrents from scenebalance 
shame on those who comment fake before downloading my torrents

    seed back for speed


 



...................................NFO:.................................................##################################################################                                  
######## ## ##### ##### ### #     # #     #  #### ################                                  
########### ##### ##### ### # ####### ### # # ### ################                                  
######## ## ##### ##### ### #     # # ### # ## ## ################                                  
######## ## ##### ##### ### ##### # # ### # ### # ################                                  
######## ## ##### ##### ### ##### # # ### # ####  ################                                  
######## ##     #     #     #     # #     # ##### ################                                  
##################################################################                                  
##################################################################                                  
                                                                                                    
++++++++++++++++++++++++++++++++++++++++++++++++++++++++++++++++++                                  
++++++++++++++++++++++++++++++++++++++++++++++++++++++++++++++++++                                  
                       Presents                                                                                   
                                                                                                    
   The Adjustment Bureau 2011 PPVRiP XviD - iLLUSiON                                                                                               
                                                                                                    
++++++++++++++++++++++++++++++++++++++++++++++++++++++++++++++++++                                  
++++++++++++++++++++++++++++++++++++++++++++++++++++++++++++++++++ 

                       Source's

Video: The Adjustment Bureau PPVRIP IFLIX

Audio: The Adjustment Bureau PPVRIP IFLIX  

(THANKS)

                                  
 
              
                      Film Info


Plot: The affair between a politician and a ballerina 
is affected by mysterious forces keeping the lovers apart. 

IMDB Link: http://www.imdb.com/title/tt1385826/

IMDB Rating: 7.1

Trailer:



                                  
  
                   
                     General Info


Size: 1.14GB

Format: AVI

Runtime: 1:45:02           
                                                                                                    
                                                                                                    
                                  
                                  
                                                                                                    
                      Video Info                                                                                         
                                                                                                    
ID                               : 0
Format                           : MPEG-4 Visual
Format profile                   : Advanced Simple@L5
Format settings, BVOP            : 2
Format settings, QPel            : No
Format settings, GMC             : No warppoints
Format settings, Matrix          : Default (H.263)
Muxing mode                      : Packed bitstream
Codec ID                         : XVID
Codec ID/Hint                    : XviD
Duration                         : 1h 45mn
Bit rate                         : 1 426 Kbps
Width                            : 704 pixels
Height                           : 432 pixels
Display aspect ratio             : 1.630
Frame rate                       : 29.970 fps
Color space                      : YUV
Chroma subsampling               : 4:2:0
Bit depth                        : 8 bits
Scan type                        : Progressive
Compression mode                 : Lossy
Bits/(Pixel*Frame)               : 0.156
Stream size                      : 1.05 GiB (91%)
Writing library                  : XviD 58                                                                                                  
                                                              
                                  
                                  
                                                                                                    
                      Audio Info                                                                               
                                                                                                    
ID                               : 1
Format                           : MPEG Audio
Format version                   : Version 1
Format profile                   : Layer 3
Mode                             : Joint stereo
Mode extension                   : MS Stereo
Codec ID                         : 55
Codec ID/Hint                    : MP3
Duration                         : 1h 45mn
Bit rate mode                    : Constant
Bit rate                         : 128 Kbps
Channel(s)                       : 2 channels
Sampling rate                    : 44.1 KHz
Compression mode                 : Lossy
Stream size                      : 95.9 MiB (8%)
Alignment                        : Split accross interleaves
Interleave, duration             : 33 ms (1.00 video frame)
Interleave, preload duration     : 501 ms                                                                                
                                                                                 
                                  
                                  
                                                                                                    
                                                                                                    
__________________________________________________________________                                  
__________________________________________________________________                                  
                   
                    Encoders Notes 
                                                             
I made a small avs script to crop & resize.
I dropped that into vdubmod.
There i lowered the brightness & saturation,
increased the contrast & gamma.
Then i de-noised it, changed the colors with a rgb eq,
used a color de-noiser's & sharpened it.
Finaly i re-encoded the audio & muxed it to the video.
The a:r is off but i think it's better than the source.
Its deffinatley watchable & better than most TS's.
Download the sample first to check that your happy with 
the quality.
Enjoy...                                                                 
__________________________________________________________________                                  
__________________________________________________________________                                  
                 
    
I am looking for:
Cammers, Cams, Screeners (any type), Cam audio, Line audio, 
Un-released R6's R5's R4's R2's R1's, 
A Windows Server & a syncer. 
If you can provide any of these please
contact me at illusion@hushmail.me


  
Greetz & Respect:
ChattChitto RG, Hunter, iNK, DiNGiE, Recalled2Life,
Xclusive666, IFLIX, Demedic, ELEKTRI4KA, hiest, Feel-Free, 
StoNerS, every uploader & encoder out there. 


                                  


Need a fast & cheap seedbox?
Visit www.seedm8.com

There M.50 has:

100 GB Disk Space

.5GB Burst Bandwidth

10 MBiT (avg. 25 MBiT) Dedicated Bandwidth

No upload/download limit

All for $16 per month.

If thats not enougth check out there G.100 
http://www.seedm8.com/g100/read-more



                                  
         
##################################################################
##############     ##  ##### ##       ##     ## ### ##############
############## ###### # #### ##### ##### ### ### # ###############
############## ###### ## ### ##### ##### ### #### ################
##############     ## ### ## ##### ##### ### #### ################
############## ###### #### # ##### ##### ### #### ################
############## ###### #####  #### ###### ### #### ################
##############     ## ###### ##  #######     #### ################
##################################################################